solid OpenSCAD_Model
  facet normal -1 0 0
    outer loop
      vertex 0 0 0
      vertex 0 24 11
      vertex 0 24 0
    endloop
  endfacet
  facet normal -1 -0 0
    outer loop
      vertex 0 24 11
      vertex 0 0 0
      vertex 0 0 11
    endloop
  endfacet
  facet normal 1 -0 0
    outer loop
      vertex 13 0 11
      vertex 13 24 0
      vertex 13 24 11
    endloop
  endfacet
  facet normal 1 0 0
    outer loop
      vertex 13 24 0
      vertex 13 0 11
      vertex 13 0 0
    endloop
  endfacet
  facet normal 0 0 -1
    outer loop
      vertex 0 0 0
      vertex 13 24 0
      vertex 13 0 0
    endloop
  endfacet
  facet normal -0 0 -1
    outer loop
      vertex 13 24 0
      vertex 0 0 0
      vertex 0 24 0
    endloop
  endfacet
  facet normal 0 -1 0
    outer loop
      vertex 0 0 11
      vertex 13 0 11
      vertex 6.5 0 18
    endloop
  endfacet
  facet normal 0 -1 0
    outer loop
      vertex 0 0 0
      vertex 13 0 11
      vertex 0 0 11
    endloop
  endfacet
  facet normal 0 -1 -0
    outer loop
      vertex 13 0 11
      vertex 0 0 0
      vertex 13 0 0
    endloop
  endfacet
  facet normal 0 1 0
    outer loop
      vertex 13 24 11
      vertex 0 24 11
      vertex 6.5 24 18
    endloop
  endfacet
  facet normal 0 1 -0
    outer loop
      vertex 13 24 0
      vertex 0 24 11
      vertex 13 24 11
    endloop
  endfacet
  facet normal 0 1 0
    outer loop
      vertex 0 24 11
      vertex 13 24 0
      vertex 0 24 0
    endloop
  endfacet
  facet normal 0.732793 -0 0.680451
    outer loop
      vertex 6.5 0 18
      vertex 13 24 11
      vertex 6.5 24 18
    endloop
  endfacet
  facet normal 0.732793 0 0.680451
    outer loop
      vertex 13 24 11
      vertex 6.5 0 18
      vertex 13 0 11
    endloop
  endfacet
  facet normal -0.732793 0 0.680451
    outer loop
      vertex 0 0 11
      vertex 6.5 24 18
      vertex 0 24 11
    endloop
  endfacet
  facet normal -0.732793 0 0.680451
    outer loop
      vertex 6.5 24 18
      vertex 0 0 11
      vertex 6.5 0 18
    endloop
  endfacet
endsolid OpenSCAD_Model
